<svg width="144" height="92" viewBox="0 0 144 92" fill="none" xmlns="http://www.w3.org/2000/svg">
  <circle cx="99" cy="38" r="16" fill="white" fill-opacity="0.1"/>
  <path d="M53 63C48.5817 63 45 59.4183 45 55C45 51.2436 47.5872 48.0928 51.0769 47.227C52.4055 42.1914 56.9834 38.5 62.5 38.5C68.9593 38.5 74.25 43.6527 74.4734 50.0562C75.4831 49.6999 76.57 49.5 77.7036 49.5C82.9983 49.5 87.2902 53.7919 87.2902 59.0866C87.2902 61.2506 86.573 63.2471 85.3629 64.8514H53V63Z" fill="white" fill-opacity="0.24"/>
  <path d="M71 65C67.6863 65 65 62.3137 65 59C65 56.3602 66.7056 54.1188 69.0747 53.3218C69.8757 50.3197 72.6117 48.125 75.875 48.125C79.786 48.125 82.9843 51.2727 83.0644 55.1641C83.5985 54.9997 84.1658 54.9125 84.7541 54.9125C87.892 54.9125 90.4356 57.4562 90.4356 60.594C90.4356 62.2551 89.7236 63.75 88.5882 64.7934L71 65Z" fill="white" fill-opacity="0.42"/>
  <path d="M89 64.5C89 64.5 93.2574 57.6416 100 58.5C105.553 59.2068 108.5 63 108.5 63" stroke="white" stroke-opacity="0.42" stroke-width="3" stroke-linecap="round"/>
</svg>
